<svg xmlns="http://www.w3.org/2000/svg" viewBox="0 0 48 48" width="96" height="96"><path d="M20.8 4.1c5.9-1.9 12.8-.6 17.4 3.6 4.9 4.4 7.9 11.3 6.7 17.9-1 5.8-3.3 10.9-7.8 14.6-4.8 4-11.6 5.6-17.6 4.1C13.1 42.8 7.4 38.6 4.9 32.8 2.3 26.9 2.9 19.6 6.2 14.2c3.2-5.3 8.6-8.3 14.6-10.1Z" fill="#007D77"/><g transform="translate(24 24.5) scale(.66) translate(-24 -24)"><g opacity=".45" transform="translate(1.1 .9) rotate(.8 24 24)" fill="none" stroke="#FFFFFF" stroke-linecap="round" stroke-linejoin="round" stroke-width="2.18"><path d="M15.6 5.9c5.7-.4 11.4-.4 17.1 0 1.2.1 2.1 1 2.1 2.2.3 10.6.3 21.3 0 31.9-.1 1.2-1 2.1-2.2 2.2-5.7.3-11.4.3-17.1 0-1.2-.1-2.1-1-2.1-2.2-.3-10.6-.3-21.3 0-31.9.1-1.2 1-2.1 2.2-2.2"/><path d="M18.9 13.6c1.8-.1 3.6-.1 5.4 0 .1 1.8.1 3.7 0 5.5-1.8.1-3.6.1-5.4 0-.1-1.8-.1-3.7 0-5.5"/><path d="M26.6 13.7c1.7-.1 3.5-.1 5.3 0 .1 1.8.1 3.6 0 5.4-1.8.1-3.6.1-5.3 0-.2-1.8-.2-3.6 0-5.4"/><path d="M19 25.4c4.2-.2 8.5-.2 12.8 0M19.1 29.9c2.8-.1 5.7-.1 8.5 0"/><path d="M21.8 37.6c1.6-.1 3.2-.1 4.8 0"/></g><g fill="none" stroke="#FFFFFF" stroke-linecap="round" stroke-linejoin="round" stroke-width="2.80"><path d="M15.6 5.9c5.7-.4 11.4-.4 17.1 0 1.2.1 2.1 1 2.1 2.2.3 10.6.3 21.3 0 31.9-.1 1.2-1 2.1-2.2 2.2-5.7.3-11.4.3-17.1 0-1.2-.1-2.1-1-2.1-2.2-.3-10.6-.3-21.3 0-31.9.1-1.2 1-2.1 2.2-2.2"/><path d="M18.9 13.6c1.8-.1 3.6-.1 5.4 0 .1 1.8.1 3.7 0 5.5-1.8.1-3.6.1-5.4 0-.1-1.8-.1-3.7 0-5.5"/><path d="M26.6 13.7c1.7-.1 3.5-.1 5.3 0 .1 1.8.1 3.6 0 5.4-1.8.1-3.6.1-5.3 0-.2-1.8-.2-3.6 0-5.4"/><path d="M19 25.4c4.2-.2 8.5-.2 12.8 0M19.1 29.9c2.8-.1 5.7-.1 8.5 0"/><path d="M21.8 37.6c1.6-.1 3.2-.1 4.8 0"/></g></g></svg>